<mxfile host="65bd71144e" modified="2021-03-02T01:35:13.321Z" agent="5.0 (Windows NT 10.0; Win64; x64) AppleWebKit/537.36 (KHTML, like Gecko) Code/1.52.1 Chrome/83.0.4103.122 Electron/9.3.5 Safari/537.36" version="13.10.0" etag="kcr5IKXaOfA0bCvOGwY-" type="embed">
    <diagram id="1hTorhzSK_oowlbr-_Oq" name="ページ1">
        <mxGraphModel dx="1488" dy="642" grid="1" gridSize="10" guides="1" tooltips="1" connect="1" arrows="1" fold="1" page="1" pageScale="1" pageWidth="827" pageHeight="1169" background="none" math="0" shadow="0">
            <root>
                <mxCell id="0"/>
                <mxCell id="1" parent="0"/>
                <mxCell id="2" value="AWS Cloud" style="points=[[0,0],[0.25,0],[0.5,0],[0.75,0],[1,0],[1,0.25],[1,0.5],[1,0.75],[1,1],[0.75,1],[0.5,1],[0.25,1],[0,1],[0,0.75],[0,0.5],[0,0.25]];outlineConnect=0;gradientColor=none;html=1;whiteSpace=wrap;fontSize=12;fontStyle=0;shape=mxgraph.aws4.group;grIcon=mxgraph.aws4.group_aws_cloud_alt;strokeColor=#232F3E;fillColor=none;verticalAlign=top;align=left;spacingLeft=30;fontColor=#232F3E;dashed=0;" vertex="1" parent="1">
                    <mxGeometry x="13" y="60" width="770" height="555" as="geometry"/>
                </mxCell>
                <mxCell id="3" value="VPC" style="points=[[0,0],[0.25,0],[0.5,0],[0.75,0],[1,0],[1,0.25],[1,0.5],[1,0.75],[1,1],[0.75,1],[0.5,1],[0.25,1],[0,1],[0,0.75],[0,0.5],[0,0.25]];outlineConnect=0;gradientColor=none;html=1;whiteSpace=wrap;fontSize=12;fontStyle=0;shape=mxgraph.aws4.group;grIcon=mxgraph.aws4.group_vpc;strokeColor=#248814;fillColor=none;verticalAlign=top;align=left;spacingLeft=30;fontColor=#AAB7B8;dashed=0;" vertex="1" parent="1">
                    <mxGeometry x="53" y="89" width="554" height="470" as="geometry"/>
                </mxCell>
                <mxCell id="4" value="Public subnet" style="points=[[0,0],[0.25,0],[0.5,0],[0.75,0],[1,0],[1,0.25],[1,0.5],[1,0.75],[1,1],[0.75,1],[0.5,1],[0.25,1],[0,1],[0,0.75],[0,0.5],[0,0.25]];outlineConnect=0;gradientColor=none;html=1;whiteSpace=wrap;fontSize=12;fontStyle=0;shape=mxgraph.aws4.group;grIcon=mxgraph.aws4.group_security_group;grStroke=0;strokeColor=#248814;fillColor=#E9F3E6;verticalAlign=top;align=left;spacingLeft=30;fontColor=#248814;dashed=0;" vertex="1" parent="1">
                    <mxGeometry x="85" y="125" width="240" height="120" as="geometry"/>
                </mxCell>
                <mxCell id="5" value="" style="points=[[0,0],[0.25,0],[0.5,0],[0.75,0],[1,0],[1,0.25],[1,0.5],[1,0.75],[1,1],[0.75,1],[0.5,1],[0.25,1],[0,1],[0,0.75],[0,0.5],[0,0.25]];outlineConnect=0;gradientColor=none;html=1;whiteSpace=wrap;fontSize=12;fontStyle=0;shape=mxgraph.aws4.group;grIcon=mxgraph.aws4.group_security_group;grStroke=0;strokeColor=#248814;fillColor=#E9F3E6;verticalAlign=top;align=left;spacingLeft=30;fontColor=#248814;dashed=0;" vertex="1" parent="1">
                    <mxGeometry x="336" y="125" width="240" height="120" as="geometry"/>
                </mxCell>
                <mxCell id="6" value="ALB" style="outlineConnect=0;fontColor=#232F3E;gradientColor=#F78E04;gradientDirection=north;fillColor=#D05C17;strokeColor=#ffffff;dashed=0;verticalLabelPosition=bottom;verticalAlign=top;align=center;html=1;fontSize=12;fontStyle=0;aspect=fixed;shape=mxgraph.aws4.resourceIcon;resIcon=mxgraph.aws4.elastic_load_balancing;" vertex="1" parent="1">
                    <mxGeometry x="307" y="165" width="48" height="48" as="geometry"/>
                </mxCell>
                <mxCell id="10" style="edgeStyle=orthogonalEdgeStyle;rounded=0;orthogonalLoop=1;jettySize=auto;html=1;dashed=1;" edge="1" parent="1" source="11" target="19">
                    <mxGeometry relative="1" as="geometry">
                        <Array as="points">
                            <mxPoint x="620" y="189"/>
                            <mxPoint x="620" y="189"/>
                        </Array>
                        <mxPoint x="712" y="189" as="targetPoint"/>
                    </mxGeometry>
                </mxCell>
                <mxCell id="11" value="Runner" style="outlineConnect=0;fontColor=#232F3E;gradientColor=#F78E04;gradientDirection=north;fillColor=#D05C17;strokeColor=#ffffff;dashed=0;verticalLabelPosition=bottom;verticalAlign=top;align=center;html=1;fontSize=12;fontStyle=0;aspect=fixed;shape=mxgraph.aws4.resourceIcon;resIcon=mxgraph.aws4.ec2;" vertex="1" parent="1">
                    <mxGeometry x="507.19999999999993" y="165" width="48" height="48" as="geometry"/>
                </mxCell>
                <mxCell id="12" value="InternetGateway" style="outlineConnect=0;fontColor=#232F3E;gradientColor=none;fillColor=#5A30B5;strokeColor=none;dashed=0;verticalLabelPosition=bottom;verticalAlign=top;align=center;html=1;fontSize=12;fontStyle=0;aspect=fixed;pointerEvents=1;shape=mxgraph.aws4.internet_gateway;" vertex="1" parent="1">
                    <mxGeometry x="306" y="45" width="48" height="48" as="geometry"/>
                </mxCell>
                <mxCell id="13" style="edgeStyle=orthogonalEdgeStyle;rounded=0;orthogonalLoop=1;jettySize=auto;html=1;dashed=1;" edge="1" parent="1" source="14" target="15">
                    <mxGeometry relative="1" as="geometry"/>
                </mxCell>
                <mxCell id="14" value="CodePipeline" style="outlineConnect=0;fontColor=#232F3E;gradientColor=#4D72F3;gradientDirection=north;fillColor=#3334B9;strokeColor=#ffffff;dashed=0;verticalLabelPosition=bottom;verticalAlign=top;align=center;html=1;fontSize=12;fontStyle=0;aspect=fixed;shape=mxgraph.aws4.resourceIcon;resIcon=mxgraph.aws4.codepipeline;flipV=0;labelPosition=center;" vertex="1" parent="1">
                    <mxGeometry x="664" y="240" width="48" height="48" as="geometry"/>
                </mxCell>
                <mxCell id="15" value="CodeDeploy" style="outlineConnect=0;fontColor=#232F3E;gradientColor=#4D72F3;gradientDirection=north;fillColor=#3334B9;strokeColor=#ffffff;dashed=0;verticalLabelPosition=bottom;verticalAlign=top;align=center;html=1;fontSize=12;fontStyle=0;aspect=fixed;shape=mxgraph.aws4.resourceIcon;resIcon=mxgraph.aws4.codedeploy;flipV=0;labelPosition=center;" vertex="1" parent="1">
                    <mxGeometry x="664" y="320" width="48" height="48" as="geometry"/>
                </mxCell>
                <mxCell id="18" style="edgeStyle=orthogonalEdgeStyle;rounded=0;orthogonalLoop=1;jettySize=auto;html=1;dashed=1;" edge="1" parent="1" source="19" target="14">
                    <mxGeometry relative="1" as="geometry">
                        <Array as="points">
                            <mxPoint x="688" y="210"/>
                            <mxPoint x="688" y="210"/>
                        </Array>
                        <mxPoint x="780" y="189" as="sourcePoint"/>
                    </mxGeometry>
                </mxCell>
                <mxCell id="20" value="" style="endArrow=classic;html=1;dashed=1;" edge="1" parent="1">
                    <mxGeometry width="50" height="50" relative="1" as="geometry">
                        <mxPoint x="818" y="533.1700000000003" as="sourcePoint"/>
                        <mxPoint x="865" y="533.1700000000003" as="targetPoint"/>
                    </mxGeometry>
                </mxCell>
                <mxCell id="21" value="CICD" style="edgeLabel;html=1;align=left;verticalAlign=middle;resizable=0;points=[];labelPosition=right;verticalLabelPosition=middle;" vertex="1" connectable="0" parent="20">
                    <mxGeometry x="0.4218" y="2" relative="1" as="geometry">
                        <mxPoint x="17.06" as="offset"/>
                    </mxGeometry>
                </mxCell>
                <mxCell id="22" value="" style="endArrow=classic;html=1;" edge="1" parent="1">
                    <mxGeometry width="50" height="50" relative="1" as="geometry">
                        <mxPoint x="818" y="496.9999999999998" as="sourcePoint"/>
                        <mxPoint x="865" y="496.9999999999998" as="targetPoint"/>
                    </mxGeometry>
                </mxCell>
                <mxCell id="23" value="アクセス" style="edgeLabel;html=1;align=left;verticalAlign=middle;resizable=0;points=[];labelPosition=right;verticalLabelPosition=middle;" vertex="1" connectable="0" parent="22">
                    <mxGeometry x="0.4218" y="2" relative="1" as="geometry">
                        <mxPoint x="17.06" as="offset"/>
                    </mxGeometry>
                </mxCell>
                <mxCell id="24" value="Private subnet" style="points=[[0,0],[0.25,0],[0.5,0],[0.75,0],[1,0],[1,0.25],[1,0.5],[1,0.75],[1,1],[0.75,1],[0.5,1],[0.25,1],[0,1],[0,0.75],[0,0.5],[0,0.25]];outlineConnect=0;gradientColor=none;html=1;whiteSpace=wrap;fontSize=12;fontStyle=0;shape=mxgraph.aws4.group;grIcon=mxgraph.aws4.group_security_group;grStroke=0;strokeColor=#147EBA;fillColor=#E6F2F8;verticalAlign=top;align=left;spacingLeft=30;fontColor=#147EBA;dashed=0;" vertex="1" parent="1">
                    <mxGeometry x="85" y="275" width="240" height="270" as="geometry"/>
                </mxCell>
                <mxCell id="25" value="" style="points=[[0,0],[0.25,0],[0.5,0],[0.75,0],[1,0],[1,0.25],[1,0.5],[1,0.75],[1,1],[0.75,1],[0.5,1],[0.25,1],[0,1],[0,0.75],[0,0.5],[0,0.25]];outlineConnect=0;gradientColor=none;html=1;whiteSpace=wrap;fontSize=12;fontStyle=0;shape=mxgraph.aws4.group;grIcon=mxgraph.aws4.group_security_group;grStroke=0;strokeColor=#147EBA;fillColor=#E6F2F8;verticalAlign=top;align=left;spacingLeft=30;fontColor=#147EBA;dashed=0;" vertex="1" parent="1">
                    <mxGeometry x="336" y="275" width="240" height="270" as="geometry"/>
                </mxCell>
                <mxCell id="26" value="" style="rounded=0;whiteSpace=wrap;html=1;strokeColor=#D86613;fillColor=none;" vertex="1" parent="1">
                    <mxGeometry x="101" y="309" width="466" height="210" as="geometry"/>
                </mxCell>
                <mxCell id="27" value="ECS" style="outlineConnect=0;fontColor=#232F3E;gradientColor=#F78E04;gradientDirection=north;fillColor=#D05C17;strokeColor=#ffffff;dashed=0;verticalLabelPosition=bottom;verticalAlign=top;align=center;html=1;fontSize=12;fontStyle=0;aspect=fixed;shape=mxgraph.aws4.resourceIcon;resIcon=mxgraph.aws4.ecs;" vertex="1" parent="1">
                    <mxGeometry x="101" y="309" width="30" height="30" as="geometry"/>
                </mxCell>
                <mxCell id="28" style="edgeStyle=orthogonalEdgeStyle;rounded=0;orthogonalLoop=1;jettySize=auto;html=1;dashed=1;" edge="1" parent="1" source="29" target="33">
                    <mxGeometry relative="1" as="geometry">
                        <Array as="points">
                            <mxPoint x="525" y="475"/>
                            <mxPoint x="246" y="475"/>
                        </Array>
                    </mxGeometry>
                </mxCell>
                <mxCell id="29" value="" style="outlineConnect=0;fontColor=#232F3E;gradientColor=none;fillColor=#D05C17;strokeColor=none;dashed=0;verticalLabelPosition=bottom;verticalAlign=top;align=center;html=1;fontSize=12;fontStyle=0;aspect=fixed;pointerEvents=1;shape=mxgraph.aws4.ecs_service;" vertex="1" parent="1">
                    <mxGeometry x="501" y="359.76" width="48" height="58.48" as="geometry"/>
                </mxCell>
                <mxCell id="30" value="(Fargate)" style="outlineConnect=0;fontColor=#232F3E;gradientColor=#F78E04;gradientDirection=north;fillColor=#D05C17;strokeColor=#ffffff;dashed=0;verticalLabelPosition=bottom;verticalAlign=top;align=center;html=1;fontSize=12;fontStyle=0;aspect=fixed;shape=mxgraph.aws4.resourceIcon;resIcon=mxgraph.aws4.fargate;" vertex="1" parent="1">
                    <mxGeometry x="170" y="345" width="29.75206611570248" height="29.75206611570248" as="geometry"/>
                </mxCell>
                <mxCell id="31" value="" style="rounded=0;whiteSpace=wrap;html=1;strokeColor=#D86613;fillColor=none;" vertex="1" parent="1">
                    <mxGeometry x="170" y="345" width="321" height="150" as="geometry"/>
                </mxCell>
                <mxCell id="32" style="edgeStyle=orthogonalEdgeStyle;rounded=0;orthogonalLoop=1;jettySize=auto;html=1;exitX=0.5;exitY=1;exitDx=0;exitDy=0;" edge="1" parent="1" source="31" target="31">
                    <mxGeometry relative="1" as="geometry"/>
                </mxCell>
                <mxCell id="33" value="" style="outlineConnect=0;fontColor=#232F3E;gradientColor=none;fillColor=#D05C17;strokeColor=none;dashed=0;verticalLabelPosition=bottom;verticalAlign=top;align=center;html=1;fontSize=12;fontStyle=0;aspect=fixed;pointerEvents=1;shape=mxgraph.aws4.container_1;" vertex="1" parent="1">
                    <mxGeometry x="214.8" y="400" width="62.4" height="40" as="geometry"/>
                </mxCell>
                <mxCell id="34" value="" style="outlineConnect=0;fontColor=#232F3E;gradientColor=none;fillColor=#D05C17;strokeColor=none;dashed=0;verticalLabelPosition=bottom;verticalAlign=top;align=center;html=1;fontSize=12;fontStyle=0;aspect=fixed;pointerEvents=1;shape=mxgraph.aws4.container_1;" vertex="1" parent="1">
                    <mxGeometry x="384" y="400" width="62.4" height="40" as="geometry"/>
                </mxCell>
                <mxCell id="35" style="edgeStyle=orthogonalEdgeStyle;rounded=0;orthogonalLoop=1;jettySize=auto;html=1;dashed=1;" edge="1" parent="1" source="15" target="29">
                    <mxGeometry relative="1" as="geometry">
                        <Array as="points">
                            <mxPoint x="688" y="389"/>
                        </Array>
                    </mxGeometry>
                </mxCell>
                <mxCell id="36" style="edgeStyle=orthogonalEdgeStyle;rounded=0;orthogonalLoop=1;jettySize=auto;html=1;dashed=1;" edge="1" parent="1" source="29" target="34">
                    <mxGeometry relative="1" as="geometry">
                        <Array as="points">
                            <mxPoint x="525" y="475"/>
                            <mxPoint x="415" y="475"/>
                        </Array>
                    </mxGeometry>
                </mxCell>
                <mxCell id="37" style="edgeStyle=orthogonalEdgeStyle;rounded=0;orthogonalLoop=1;jettySize=auto;html=1;" edge="1" parent="1" source="6" target="33">
                    <mxGeometry relative="1" as="geometry">
                        <Array as="points">
                            <mxPoint x="331" y="255"/>
                            <mxPoint x="246" y="255"/>
                        </Array>
                    </mxGeometry>
                </mxCell>
                <mxCell id="39" value="NATGateway" style="outlineConnect=0;fontColor=#232F3E;gradientColor=none;fillColor=#5A30B5;strokeColor=none;dashed=0;verticalLabelPosition=bottom;verticalAlign=top;align=center;html=1;fontSize=12;fontStyle=0;aspect=fixed;pointerEvents=1;shape=mxgraph.aws4.nat_gateway;" vertex="1" parent="1">
                    <mxGeometry x="181" y="165" width="48" height="48" as="geometry"/>
                </mxCell>
                <mxCell id="40" value="SecurityGroup" style="outlineConnect=0;fontColor=#232F3E;gradientColor=none;fillColor=#5A30B5;strokeColor=none;dashed=0;verticalLabelPosition=bottom;verticalAlign=top;align=center;html=1;fontSize=12;fontStyle=0;aspect=fixed;pointerEvents=1;shape=mxgraph.aws4.endpoints;" vertex="1" parent="1">
                    <mxGeometry x="181" y="525" width="48" height="48" as="geometry"/>
                </mxCell>
                <mxCell id="41" value="" style="outlineConnect=0;fontColor=#232F3E;gradientColor=none;fillColor=#5A30B5;strokeColor=none;dashed=0;verticalLabelPosition=bottom;verticalAlign=top;align=center;html=1;fontSize=12;fontStyle=0;aspect=fixed;pointerEvents=1;shape=mxgraph.aws4.endpoints;" vertex="1" parent="1">
                    <mxGeometry x="432" y="525" width="48" height="48" as="geometry"/>
                </mxCell>
                <mxCell id="42" value="CloudWatch" style="outlineConnect=0;fontColor=#232F3E;gradientColor=#F34482;gradientDirection=north;fillColor=#BC1356;strokeColor=#ffffff;dashed=0;verticalLabelPosition=bottom;verticalAlign=top;align=center;html=1;fontSize=12;fontStyle=0;aspect=fixed;shape=mxgraph.aws4.resourceIcon;resIcon=mxgraph.aws4.cloudwatch;flipV=0;labelPosition=center;" vertex="1" parent="1">
                    <mxGeometry x="664" y="410" width="48" height="48" as="geometry"/>
                </mxCell>
                <mxCell id="43" value="" style="outlineConnect=0;fontColor=#232F3E;gradientColor=none;fillColor=#5A30B5;strokeColor=none;dashed=0;verticalLabelPosition=bottom;verticalAlign=top;align=center;html=1;fontSize=12;fontStyle=0;aspect=fixed;pointerEvents=1;shape=mxgraph.aws4.nat_gateway;" vertex="1" parent="1">
                    <mxGeometry x="374" y="165" width="48" height="48" as="geometry"/>
                </mxCell>
                <mxCell id="44" style="edgeStyle=orthogonalEdgeStyle;rounded=0;orthogonalLoop=1;jettySize=auto;html=1;entryX=1;entryY=0.5;entryDx=0;entryDy=0;" edge="1" parent="1" source="45" target="76">
                    <mxGeometry relative="1" as="geometry">
                        <mxPoint x="720" y="101" as="targetPoint"/>
                    </mxGeometry>
                </mxCell>
                <mxCell id="45" value="" style="outlineConnect=0;fontColor=#232F3E;gradientColor=none;fillColor=#232F3E;strokeColor=none;dashed=0;verticalLabelPosition=bottom;verticalAlign=top;align=center;html=1;fontSize=12;fontStyle=0;aspect=fixed;pointerEvents=1;shape=mxgraph.aws4.user;" vertex="1" parent="1">
                    <mxGeometry x="950.5" y="77" width="48" height="48" as="geometry"/>
                </mxCell>
                <mxCell id="76" value="Github" style="shape=image;imageAspect=0;aspect=fixed;verticalLabelPosition=bottom;verticalAlign=top;image=data:image/png,iVBORw0KGgoAAAANSUhEUgAAAgAAAAIACAMAAADDpiTIAAAAA3NCSVQICAjb4U/gAAAACXBIWXMAAMinAADIpwFvdAvIAAAAGXRFWHRTb2Z0d2FyZQB3d3cuaW5rc2NhcGUub3Jnm+48GgAAAwBQTFRF////AAAAAAAAAAAAAAAAAAAAAAAAAAAAAAAAAAAAAAAAAAAAAAAAAAAAAAAAAAAAAAAAAAAAAAAAAAAAAAAAAAAAAAAAAAAAAAAAAAAAAAAAAAAAAAAAAAAAAAAAAAAAAAAAAAAAAAAAAAAAAAAAAAAAAAAAAAAAAAAAAAAAAAAAAAAAAAAAAAAAAAAAAAAAAAAAAAAAAAAAAAAAAAAAAAAAAAAAAAAAAAAAAAAAAAAAAAAAAAAAAAAAAAAAAAAAAAAAAAAAAAAAAAAAAAAAAAAAAAAAAAAAAAAAAAAAAAAAAAAAAAAAAAAAAAAAAAAAAAAAAAAAAAAAAAAAAAAAAAAAAAAAAAAAAAAAAAAAAAAAAAAAAAAAAAAAAAAAAAAAAAAAAAAAAAAAAAAAAAAAAAAAAAAAAAAAAAAAAAAAAAAAAAAAAAAAAAAAAAAAAAAAAAAAAAAAAAAAAAAAAAAAAAAAAAAAAAAAAAAAAAAAAAAAAAAAAAAAAAAAAAAAAAAAAAAAAAAAAAAAAAAAAAAAAAAAAAAAAAAAAAAAAAAAAAAAAAAAAAAAAAAAAAAAAAAAAAAAAAAAAAAAAAAAAAAAAAAAAAAAAAAAAAAAAAAAAAAAAAAAAAAAAAAAAAAAAAAAAAAAAAAAAAAAAAAAAAAAAAAAAAAAAAAAAAAAAAAAAAAAAAAAAAAAAAAAAAAAAAAAAAAAAAAAAAAAAAAAAAAAAAAAAAAAAAAAAAAAAAAAAAAAAAAAAAAAAAAAAAAAAAAAAAAAAAAAAAAAAAAAAAAAAAAAAAAAAAAAAAAAAAAAAAAAAAAAAAAAAAAAAAAAAAAAAAAAAAAAAAAAAAAAAAAAAAAAAAAAAAAAAAAAAAAAAAAAAAAAAAAAAAAAAAAAAAAAAAAAAAAAAAAAAAAAAAAAAAAAAAAAAAAAAAAAAAAAAAAAAAAAAAAAAAAAAAAAAAAAAAAAAAAAAAAAAAAAAAAAAAAAAAAAAAAAAAAAAAAAAAAAAAAAAAAAAAAAAAAAAAAACyO34QAAAP90Uk5TAAECAwQFBgcICQoLDA0ODxAREhMUFRYXGBkaGxwdHh8gISIjJCUmJygpKissLS4vMDEyMzQ1Njc4OTo7PD0+P0BBQkNERUZHSElKS0xNTk9QUVJTVFVWV1hZWltcXV5fYGFiY2RlZmdoaWprbG1ub3BxcnN0dXZ3eHl6e3x9fn+AgYKDhIWGh4iJiouMjY6PkJGSk5SVlpeYmZqbnJ2en6ChoqOkpaanqKmqq6ytrq+wsbKztLW2t7i5uru8vb6/wMHCw8TFxsfIycrLzM3Oz9DR0tPU1dbX2Nna29zd3t/g4eLj5OXm5+jp6uvs7e7v8PHy8/T19vf4+fr7/P3+6wjZNQAAHhNJREFUGBntwQmAjfX+BvDnzG6MYWzJml0SXZItLfbqIuLaSlr8yy1Cl0KL5JJCRSURSroIUaiupcWeEncKCYOxZhkMs5/z/JGEOefMeZfv+77nzO/zARRFURRFURRFUUKbq1Dp6jff2a5Hn8EvvzHpnbcnTnjzjdfHjX3t1TGjhvzz/ra331SpWCSUkBNXvdkDz05csCE51cM8pR3+9ftFEwd3u7V8BJTgVqTRwyOn//eXk9THvX/dnLFPdagVBSXYXNvsibdWHKQ5srfPf7lbnRgowaDE3f+ati6F5nP/tnDU/XUjoThW5M1PfrSTstJXv9qhFBTHKX3fa6vSaJGkj/veHAHFIaIbDZy7j1ZL+25Mu0JQbHZd1zc3ZNIu2d8OreeCYpOCbd/ZTdv9PqtnKSiWu37gsgw6xeYxzaKgWCau3aQ9dJgz87vGQbFAzaeXZ9KR0uZ3jYMiKa79u3vpZGnzu8ZBkVH44WWZdL60+V3joJgt6t5P0hks0ua0dEExj+v2904wuCQ9VwaKOWqP2ccglLO4fQQUo8o/m8igdXBUZSgGFH3sOw+DmmdFt2gouoS1W5jJEHDkheJQNIvvv4uhIm1SVSiaVJ2QylDi/rQJlEC5Wi3xMOSs7xQOJQCxj29laNr1ZEEoeajw6gmGruMvxEPx47b5OQxtx56JheJdZK+fmA8c6R8DJbfwXknMJ/b3iYJyJVeX7cxHkh6OgHKZtpuZz+zoEQblohbrmQ8lNodyXuOvmU8tqAil7hLmX+kjCyJ/qznPw3xtf3fkY5U+dDPfW1MP+VTsq1lUSPfUksiP2u6h8oeTA8KR35T7lMpfNt6IfCV8YCqVy2WNiEL+0XAzlav90hD5RJFJHiq5uV+PRX7Q4zAV73Y3R8irtpyKb1OLIKRFD8+g4s/BtghhjXZQycvbMQhRYcOyqeQt8QaEpDJfUwlI2uMIQe2PUwnUgqIIMTFvU9Eg+XaElBsSqWjiHhGO0NEnjYpWayogRBT9lIoOKfcgJNyeTEUX93MuBL3wl91U9FpQCEGu3BoqBvxSFUGt/iEqhpy8G0GsUxoVg9zDXAhWQzxUjJsfh6AUNZ2KKX6piiBU9BsqJkm5A0Gn6g4qpsnsgiBzx3EqJvIMRFB5KIuKuca7EDRco6mYbnY0gkSBeVQEfF0YQaHURioiEssiCJTdSUVIci04XrldVMSk3AaHK7+biqC0FnC0CklURKW3gYNdt4eKsIx74FgV91IRl9kODlVpHxULZHWEI1VOpmKJ7M5woCrJVCyS0w2OU3U/FcvkPACHqXaAioXcveAo1Q9SsZS7Exyk/EEqFstsAceIT6RiudRb4BARy6jY4Nj1cIb3qdgiuTycYBgVm2wvDvt181Cxy8ZCsFvTDCr2WRENe1U7TsVO88Nhp+I7qdjrHdgoZi0Vu/WFbVxzqdgupxXsMoaKA6TUgD0eo+IIvxWFHZrlUHGGFRGwXslDVJxiEizn+oqKc/SF1Z6l4iA5rWCtRtlUnCSlBqyUsIeKs/xaCBZaQMVpZsM6T1Bxnj6wyk0ZVJwnoy6sEfcrFSfaGQ9LfEjFmT6BFR6k4lRPQl6NM1ScKvNmSIvZQhO5U/bvyqBimt1FIGwizfPLE8UBhFVq89Tby/Z5mM94Dq75aMRDd9S//a5B22iaBZDVxEPTfFkQl4lt8sznJ5gvJM0f+8RdNWLwl7vO0iz9ICnyF5pmXSSu5qr1+McnGNLOLu1XDbk1T6dJ0mtA0DCaxtMAXkU0m7CPIerncS2j4d0gmmV9OMRUTadpPoZvdUfsZKhJ+eTRsvAt/iTNMgRiVtA8LeCPq/XCHIaQHx+Mhn9jaJbMWhDSk+Y5HoE8lBtxiKEhe+6tyFNNmubHCIgofpTmmYa8RXZeyeB3bHQ5BOIQTfMiRMygie5BQGq8mcKg9r9HCyAws2iarL9BQDOa6FQ0AhT7yCYGrcV3ImAP0zz/i4LpYnbQRLOgQfstDErbWkGDCjTRKJjuZZqpI7Rw/WMbg86pgZHQZCfNk3MLTFYziyZKj4U24T13Mqh4pl0DjSbTRFujYCrXapppHTSL6L2PwWPDLdCsC830LEz1fzTVm9Ah+smDDA6HH3JBuxIemuhMOZjomhSaqgd0KfCvo3S+7HHx0GULzfQJTPQ2zVUVOsW/mkmHW1sbOo2nqVrCNJWzaKoTLuhWZSGd7MT/uaDXPTTV9iiYZRbN9V8Y0SKROqUd3Lp26cfvjBr8WJfWDerUrnVDzRrVq1WtXKlixRub3NWl98Dh46fO/XLtjgzqlTO9JPQrlE1TPQuT1PHQXCNhSPg/j1GLrN3ffjSqz99rJyAwrlINuwx+e3HiaWqT+V4lGLKWpjpTDuZYQpO1g0EJb2YzAKc3TB903y3XuqBTwt/ufW7eLg8Dcvb1MjBoDM01D6ZoSrOVgmHXf0l/UtZMGdC6HEwR37TftJ8y6VfOVz0LwbCeNFkrmGENTbYPZrhnK73xbJ3Rt/m1MFtknV5vrNxPr1KXP1UKZqhPk/0aBePa0mzzYIqwjht4pQOfDmkWD0EF63QeNmPtMV5yMvGTp+qFwySFaLZnYVhYIs32DMxS7/m1Obzg1IrRHcrAIgkN2t97TusbCsFc+2iyU8Vg1AM0XWuYKLZGy1733VopDKHgK5ptPAyKSqLpboLi3Rs0W0YFGNOX5isLxbs+NN0HMCTuCM0XDcW7e2k6940w4nmaLxWKD41pviUwoNgpmm83FB+qUMDt0G8sBWyA4kMhClgH3RLOUsASKL6kU0BH6PUsJcyA4steCtgeDn0i91PCa1B8+YESekOf7hTxDBRf1lBCciR02UgRD0Px5VuKeAh6NKWMdlB8WUkR21zQYQFltITiyzLK6ADtKrkp4z4ovnxBGeuh3RsU8jAUXxZTyJ3QqvBpChkAxZdFFPIltHqaUoZD8WU5pfwN2oTvoZTXofjyA6XMhjadKWYaFF92UUpOZWiyjmLmQ/HlBMW8Cy0aUs5yKD643BSTUQoazKGcjVB8KExBIxC48jmUswOKD9dR0MFIBOwlCjoCxYcmlNQZgXLtpqAMKD48SEkrEahbKao0FO9GUlQNBOg9imoHxbvZFPUGAhNzkqJGQPHuB4pKiUVAOlPWF1C8O0VZDyMgn1PWUShelaCwjQhEiWwKqwDFmzsorT4C0I/SOkHxZiilTUMAfqC0V6B4s4TS0hKQp5oUtxyKF64TFNcXeRpNcSkuKLnVpLx1yEvYPsqrCiW3R2mBishDM1qgG5TcptMCQ5GHGbTAOCi5/UILJMK/2FRa4AMouZ2iFWrBrx60wkwoucTSEqPg11e0wkdQcqlMS+yGPwk5tMLHUHJpQGs0hB9daYk3oeRSitaYAD9m0hItoOR2kJY4HA6fwo7RCgcioeT2NK3RAj41oiU6QfEiOpGWmAafRtIKs6F4VeMMrXAsDL78RAtsjYPi3f20RCP4UIYWOF0Dii9TaIWR8OH/aIHOUHyK2UILbIIPiyhvHBQ/qp2mBUrDq+gzFPdtBBR/utICj8Cr1hR3sBQU/yZR3nx4NYHSsm+FkofoTRR3OhLe7KK0YVDyVD2T4prBixqUtiMKSt7GUNxYePE0pd0NJQCFDlLaNnixksI+hxKQByiuInKJz6KsjCpQAuJaS2lPIJdOFPZvKAG62U1h85HLJMpKLgglUFMp7Ahy2UJZXaEErORJCquKq8S7KeobKBr0p7CHcJVWlFUfigYR2ynrfVxlOEWtgqLJI5T1K66yjKI6QtEk5ghllcQVwk5TUlI4FG1epKwOuEIdihoARaMS6RQ1Dlf4JyWdjoei1XsU9T2u8BElvQlFs+s9lJQdi8slUZC7MhTtllBUM1zmWkpaCEWH5hT1Ai5zHyXdAUWPzZS0GJcZT0H7XVD0eIyS9uEy6ynobSi6lHRTUgIuicmioBZQ9PmGkm7DJU0p6EQEFH36UlJfXPIMBX0IRaeyHgqagks+o6AOUPRaT0EbcMlhykmLhaLXIAo6G4aLEihoIRTdKlNSNVzUmIIehKLfZgrqhIseoZycolD0e56CRuCisZSzBYoB9ShoIS5aQjlToBgQkUY5u3HRbsrpDcWINZTjicMFBdyUUweKEeMpqDYuuIlyzoZDMaIrBbXDBd0oZxUUQypRUD9cMIJyxkEx5ijljMcFcymnCxRjllDOAlyQSDkVoRjzAuVswnnhmRRzFIpBbSjnBM6rSjkroBhUnILicU47ynkfilGnKac2znmGcp6HYtTPlNMO58ygnAegGLWUcvrhnA2UcxsUoyZRznicc5xyykMxagjlLAAQRTnZ4VCM6kE5GwCUo5wkKIbdSjnbAdxMOV9DMaw85RwE8HfKmQ7FsPAcijkD4FHKGQ7FuL2UEw4Mo5ynoBj3A+UUASZSzqNQjPuOcsoDn1BONyjGfUk5tYDvKKcdFOM+pZzGwA7KaQbFuFmU0wY4TTkNoBg3lXL+gQIUVAuKcRMo51FUpKCKUIx7hXIGohEFlYRi3IuUMxz3UlAsFOMGUc54PE5BYVCMe4JypmA4BUVDMa4v5czBJAoqDMW4QZTzBWZSUEkoxr1AOWvwHwoqD8W40ZSTiHkUVBWKca9Tzl4soqAboRj3LuWkYCkF3QzFuA8o5yyWUVATKMbNoZwT+IaCmkMx7jPKOYjVFHQ3FOOWUU4SNlBQVyjGraKc7dhEQQOgGJdIOVuQSEGvQTHuKOV8j+0UNAuKYZEeylmFXRS0EophZShoOfZS0HYohtWjoCU4SEGnoRh2DwUtwFFKKgjFqEco6D84SUlVoRg1jIJm4Cwl3Q7FqIkUNBmnKKkbFKPmUtAE7KekF6AYtYqCXsNWSpoNxahDFDQS6ylpCxSDClPSc/gvJWWEQzGmASUNwjyKqgrFmAcpqR+mUVR7KMa8QkmP4Q2KGgLFmIWU1BMjKGomFGO2U1JLDKKoH6EYEplNSdfjMYo664JiRA2KikM3yqoBxYgOlJQC3ENZj0IxYiQlJQJNKesDKEaspKSlQB3K2gXFgIgzlDQZqEhhpaHoV5eingOKUdg/oOjXl6J6AVEUNgGKfv+hqOYAjlPWT1D020tR1QBspCx3PBS9ylBWLIC5FNYail6dKeo4znmFwsZC0WsCRW3GOY9R2A4oeu2mqM9xTitKqwFFn1qU9Q7OqUJpg6HoM5SyhuKcSDeFrYaizwbKegDn7aUwdwkoelzroaw7cN43lNYLih69KawyzptGaQug6LGYsjwxOO95SjsTA0W7gumUtQMX3E9xbaFo15HCZuOCxhS3AIp2iylsEC64luKySkLRqpybwprjAlcaxT0NRauXKC0Bf9hKcVuhaBSeTGG7cdEiymsERZu2lDYPFz1PeVOhaPM5pQ3FRW0oLzUOihblciitDS4qRgs8DEWL4RRXAn/aRXkboWgQc4jSknHJbFqgBZTAPUVxi3DJQFpgBZSAxRykuBdxSVNaoQGUQPWjvL/jkoI5tMBCKAGKOUB5pfGX/9ECnhugBKYv5R3GZd6nFWZCCUj0Acpbgss8TitkV4QSiCdpgZdxmbq0xPtQAlD4EC3QAZeJTKcVPPWh5O0tWqECLreelljvgpKX+m5a4DCuMIHWeAhKHsJ/pBU+xBUeoDUOF4biXz9aohuuUJUWGQ/Fr9KnaQV3MVxpF62RXROKP5/QEutwlQm0yNdhUHz7O63xAq7SmlYZCsWnMkdpjfq4SvRZWiS7MRQfIlbRGr+7cLXPaJW9CVC8G02LzEQuj9Eyn0Lx6i4PLdIduZSjdZ6E4kXZY7SIuxhy20LLZNSDkkvEalplPbwYRescqQblauNpmRfhxa200J6yUK40kNa5BV6EH6eFthaDcrkHPLTM72Hw5mNa6fs4KH+5O5vWmQmvetBSK6Kh/KnRWVqoO7wq5qalFoRD+UPN47SQuzi8W0trTXNBOa98Mq20Hj4Mo8XGQzmnWhIt9SJ8uJ5WmxEJpf5RWutm+LKBVvs6Afldq1Raazt86kPLba+E/K17Fi02BD4lZNByRxsjP+vvocXcZeHbHFovvQvyLdcrtNxX8OMu2sAzFPlU8S9ovW7wI/wA7TAtGvlR42Ra72QB+DOGtthyI/Kfp7Npg/fg1/W0R8ZAF/KXhEW0RWP4t542WVkO+Un9JNriV+ThcdolpRvyjeiXMmmPochDkXTa5uMiyB+a76BN3OWQl9m0T3IL5AMlZ9I2/0We2tBOn1ZDiHP1PkH7dEeewg/QTlkTiyOU1VpNG50qgLy9QnudfCYGoaryBzm00xQEoJqHNtvTw4VQVGFKNu3VBIFYSNttvAMhp8zbmbTZDgSkER1gXedwhJJr3kin7YYhMN/RCfYMiEeoqPXuWdrPXQ6BuYf67Z/eo9c7iR6a4dT4CggBEZ2+oSN8hgC5/kddzi7tXxMXFGs/bmMOjcuZ2xBB7prn99MhGiNQ91Mz9w+j7ozC5Yr330IT/DjgWgSvxrMy6RTfIWARe6jJyfe7FIcXdScep3HuZb3iEYzqjt5JB7kLgetHTVLLwoeYAUdpgvS57aMQXOqO3klH2QwNYo9RkwXwKf6lVJrhxOQW0QgWdUfvpNN0gxbDqU1b+FZygpumOLu0//VwvJJdp+6h8+wKhxbFzlKTvQXhR5PdNMu+qZ2LwrHi7h63xUNHehzavEltXoM/habTPO71L99dHI5TsOmLq7LoVIdioE2FbGqSXRd+3XeMpto5q98tUXCIwncM/Girm072DLSaSW12xMGvittptsz1b3avHg5bFW/17NydHjrdyXhodaOH2nwI/xK+pYTM//3nuQ7VwmG56NrdRi7cx+AwGtotpEZjXfArahbFZGyeNbR9lTDEwgKRNf/x0rxtOQwe6ddAuxrZ1OijSPjlGk1Z6avqQdg1z8/5OYvB5h3o8Ra12lAN/o2jrGmQ5lrE4JNTEXoUP0mtzv4T/k2hqMYQF7+dQWcW9BlM7b4sDX/C5lDQVligxmkGm9rQJzqJ2h1vC38iv6Ccp2GF9h4Gl8XQqyt1cA+CP0X2UEpWCVhiBIPLrdDLtZ56TI+CH42zKeQTWMO1mMFkCfRrQl1WlYAfwyikDSxSeB+DR1Z1GPAJddl9HXwLW0kR+8JglS4MHq/DiMqZ1GVPRfhW+iglDId1VjFYHCsCQ8ZRn72V4Ns9FOCuAOvUdTNI9IExCcepz77K8O11mu8rWGkqg0NiOAzqT52Sy8GnqE00XWdY6ZpTDAotYFTkb9Rpcxx8qpZKkx2NgqX+xWCwCMZ1oF6fhcGnnjTZeFgrKonOl1kFJlhMvcbBtw9prpqw2GA632swQ5mT1Ks3fIrbQTOthdVKZNLpjsTDFI9Sr/Tq8OlvGTTRI7Dcx3S63jDJcuq1Jgw+9aN5UuNgudvocJvDYJLrzlCvAfBtEU0zBTbYSme7A6bpS73SqsCnosk0S0PYoB8dbT7M41pFvb5zwaemOTTHz7BDkTQ6WEYlmKhaOvXqC99eoDn6wxZL6GCjYapB1OtMJfjkep9myCwGWwygcx0qBFOFf0+9Vrrgk2sqTTAH9qhN5+oIk9XKpF594JtrCo1rCXu4jtCpPoTpXqBeqaXhm+s9GpXkgk0+pkPtKwzTRW6hXuPhh2syDXoBdnmEzuRpDgF1s6nT2eLww/UuDXGXg10q0JkmQMQo6jUS/rgm0YilsE8SnWh7AYiI+p46nYyHP64BGdSvI+zzOR0o5xYIue4EdRoCrwreiT/csJl6HYmEfV6lA42AmHYe6vN7LLy4dpPn5TBcEDXGTX2eg40eovP8GAk5r1Gnp5Bb2CqSSxPwh9uSqMf3EbBRAzpOek0IilhNfZKjkEtvnrc5AX+In0HtVifATvF0nIEQVfYo9emNXMqc5HkbCuGiDj9Tm6MDomGv/XSYb8Igq7WHuuwMRy4P8oJvw/GnVl8ycKdGxMNuy+gsp6+DtJepT3fk9jnPW43L3DAlnYE4+G6bKNhvMp3lYYgLX0ldfnYhlxJ7eU5rXKHEi0eYh62jG7jgCCPpKJ/BAqUOUZd7kVvdNHImrhbddvS3afTBvWZwNThGfzrJ0WtghTtzqMdGeNGdBxLgTWT9p+Yk8wpnNs/9d68mReEk99NJ7oM1nqMureDFa3fBt3LN7u7Y7aE+/Z8dPuLR20vDgVrTQd6CRVxfUo9vkbe/VUYu75WHY9Wjc3wdAasUT6YeTZGHsH+7uXVMY1zhJu6vhdyun9IL9qtAx0gqDus0zqQOXyIPY3nBtv4J+Ms0MqUprlJmag45AbaLpVOcqQMr9aQet8GvnvxT+gd1cVHxdJLpHXCFe1J43kTYzkOH6ARrDacOu+LgT8J0/mlbVVzUj+e5H8Nfwl7y8A/DYLccOsPLsNqH1OFd+NdmHy/4ojD+9A3/MByXlD3OPySWht0y6QiLXLBa1NfUoTX8K/jM7yTHhuGSZF40ORx/ap7D89YkwHbpdIJfCsF6Cduo3f4iyEPBfy1rh8v8xIuSyuGSp3jOkljY7wwd4EQV2KHiEWo3Exrdmc4LNpXCZaaRMyPgAKdpv5yWsEeDNGrXERrV38JzFhXC5aLXvu6CE6TQfgNhl44eana0CrSq/erSnrhKQTjDcdruA9jnaWq3pyxCyO+024Zo2OgdaretOELHYdrsYGnYKXwJtfsxHiHjAO2V0RD2ivuJ2n1bAKEimfbqBbuVSaZ2SyIRIvbQVi/DfnVOU7svEhAadtNO4+AEt52hdrtvQkj4jTZ6B85wZxq1S3sQoeBX2meGCw7RMp06TIpC8NtO28wOh2PclUkd1pdF0PuVdlkUAQdpm0UdTg6ORpDbQZt8FQ1H6ZBNPfZ0dyGo/UZ7fFMADvOPHOqy8TYEs99oi3VxcJzubuqzsCaC107aYVMROFBPN3Va/VBBBKldtMHPxeFIj3ioV+rUxghKu2m9HaXgUI/TgG2DaiD4JNFySeXgWH1pyOE5/7zBhaCyh1bbXwkONoBGHZ3Xt2kZF4LFXlrsSHU42mCaIX3bkgn929WuVLZE4ZgwONleWmtfTTjcY26aLOdsypF9O3/5acN3y79a8e3q9T9s/nn7zj37Dx87mZqe/QbstY+W2lIajtcxgxaaCHsl00rL4xEE7jhF67wNe+2nhWZGIijcdJiWmQR7HaB1RrkQJCrvpFUmw14HaZWcPgge1/xEi0yBvQ7RImfbIZjEf01rvA97HaI1jjZAcImeT0tMh70O0xI7qyDYhE2mFT6AvY7QChtKIAiNoAVmwl6/0wKfxyIoPeGmuFmw11HKmxyOINUlk9Jmw17HKG4YgleLVAqbC3sdp7CsBxHMbtpLWfNgr+OUldwEwa3EdxS1APY6QVGLiyHYRb5LSQthrxQKyv6XCyGgTxblfAZ7naScvQ0RGm7/nWIWw16nKGZRAkJFhc2UshT2Ok0hWQMQQmI/oZAvYa9Uyth9C0KK6+ksivgv7JVKEfOLINTc/BslLIe9zlBAZl+EoEIzKeBr2OsszbezHkLTA6k03QrYK42mmxuPUFXlB5rtK9grnSbL6IMQFjXWQ3Mtgb0yaK5fbkJoa3OIploIe2XSTOnDohDqEqbTTPNgr0yaaFkV5Aet99I8s2GvLJrmSA/kE3FveWiWj2CvbJrE814C8o+mv9Ik02GvHJrj51uRr8SMyaEppsBebpohbWgk8pubN9MMk2AvD03wVWXkQ+F9jtG4CbAXjTvcDflU0bdyaNR42ItGeSYXQf5140oa9CrsRYMSmyB/67SHhoyCrVw05OyQSOR3BV5MowEvwVZhNCD9jWugAOWn51C352GrcOqW+U4ZKH+oPttDnYbAVhHUKXtqBSh/qfMZ9RkEW0VSF/fMKlCu1HA59egPW0VSB8+c66HkdudaavckbBVF7T6tDcW7u1dTq8dhq2hqtbQeFN+aLPJQk0dhryxqsrwRFP9qTs+iBg/CXvupwXe3Q8lb2XGpDFgP2OtHBuybllACU2ToEQaoPey1kIE5ObEmlMBFd13uYSCqw15PMhCbeheEolHFEcnMU2YE7FWZeUqf0QCKHmF3zcuif2tgt0T6t2NgUSi6lXh6K/1pC7t1oB/ZC1q6oBjT6P1U+rIJ9ltDXw4MLwPFBHGPrKNXh6vBflWP0BvPso4RUMxSc9xR5nL8RjhBnRTmcnxcVSimiur0hZtXmHktnKHaCl4hZ0nnaCjmu7bnhwd40YHJDeEc3Vfm8KKU+Y+XgiKm4m1dBw5+5N6bXHCWYl2fGf/BhCG9GoRDURRFURRFURTFwf4fR4JTtCVMPyYAAAAASUVORK5CYII=;fontColor=#232F3E;" vertex="1" parent="1">
                    <mxGeometry x="809.5" y="72.5" width="57" height="57" as="geometry"/>
                </mxCell>
                <mxCell id="19" value="ECR" style="outlineConnect=0;gradientColor=#F78E04;gradientDirection=north;fillColor=#D05C17;strokeColor=#ffffff;dashed=0;verticalLabelPosition=bottom;verticalAlign=top;align=center;html=1;fontSize=12;fontStyle=0;aspect=fixed;shape=mxgraph.aws4.resourceIcon;resIcon=mxgraph.aws4.ecr;flipV=0;labelPosition=center;fontColor=#232F3E;" vertex="1" parent="1">
                    <mxGeometry x="664" y="165" width="48" height="48" as="geometry"/>
                </mxCell>
                <mxCell id="87" style="edgeStyle=orthogonalEdgeStyle;rounded=0;orthogonalLoop=1;jettySize=auto;html=1;dashed=1;exitX=0;exitY=0.5;exitDx=0;exitDy=0;" edge="1" parent="1" source="76" target="11">
                    <mxGeometry relative="1" as="geometry">
                        <Array as="points">
                            <mxPoint x="531" y="101"/>
                        </Array>
                        <mxPoint x="565.1999999999998" y="199" as="sourcePoint"/>
                        <mxPoint x="674" y="199" as="targetPoint"/>
                    </mxGeometry>
                </mxCell>
                <mxCell id="47" value="DynamoDB" style="outlineConnect=0;fontColor=#232F3E;gradientColor=#4D72F3;gradientDirection=north;fillColor=#3334B9;strokeColor=#ffffff;dashed=0;verticalLabelPosition=bottom;verticalAlign=top;align=center;html=1;fontSize=12;fontStyle=0;aspect=fixed;shape=mxgraph.aws4.resourceIcon;resIcon=mxgraph.aws4.dynamodb;" vertex="1" parent="1">
                    <mxGeometry x="690" y="513.0666666666666" width="48" height="48" as="geometry"/>
                </mxCell>
                <mxCell id="48" value="S3" style="outlineConnect=0;fontColor=#232F3E;gradientColor=#60A337;gradientDirection=north;fillColor=#277116;strokeColor=#ffffff;dashed=0;verticalLabelPosition=bottom;verticalAlign=top;align=center;html=1;fontSize=12;fontStyle=0;aspect=fixed;shape=mxgraph.aws4.resourceIcon;resIcon=mxgraph.aws4.s3;" vertex="1" parent="1">
                    <mxGeometry x="630" y="513.0666666666666" width="48" height="48" as="geometry"/>
                </mxCell>
                <mxCell id="49" value="backend" style="fillColor=none;strokeColor=#5A6C86;dashed=1;verticalAlign=top;fontStyle=0;fontColor=#5A6C86;" vertex="1" parent="1">
                    <mxGeometry x="623" y="487.07" width="130" height="100" as="geometry"/>
                </mxCell>
            </root>
        </mxGraphModel>
    </diagram>
</mxfile>